<svg xmlns="http://www.w3.org/2000/svg" width="51" height="51" viewBox="0 0 51 51">
  <path id="Icon_simple-crunchbase" data-name="Icon simple-crunchbase" d="M45,0H5A5.021,5.021,0,0,0,0,5V45a5.021,5.021,0,0,0,5,5H45a5.021,5.021,0,0,0,5-5V5A5.021,5.021,0,0,0,45,0ZM14.677,30.135A4.4,4.4,0,0,0,20.5,27.958h3.458a7.688,7.688,0,1,1,0-3.646H20.5a4.4,4.4,0,1,0-5.823,5.823ZM38.313,31.9A7.4,7.4,0,0,1,36.1,33.208a7.667,7.667,0,0,1-7.063-.792v.792H25.9V11.188h3.125V19.75a7.792,7.792,0,0,1,3.75-1.312h.562A7.646,7.646,0,0,1,38.313,31.9Zm-.465-5.762a4.383,4.383,0,1,1-4.383-4.383,4.382,4.382,0,0,1,4.383,4.383Z" transform="translate(0.5 0.5)" fill="rgba(0,194,176,0.63)" stroke="#00c2b0" stroke-width="1"/>
</svg>
