<svg xmlns="http://www.w3.org/2000/svg" width="51" height="51" viewBox="0 0 51 51">
  <path id="Icon_ionic-logo-facebook" data-name="Icon ionic-logo-facebook" d="M51.74,4.5H7.26A2.762,2.762,0,0,0,4.5,7.26V51.74A2.762,2.762,0,0,0,7.26,54.5H29.5V34.708H23.523V27.417H29.5V22.026c0-6.458,4.479-9.974,10.247-9.974,2.76,0,5.729.208,6.419.3V19.1h-4.6c-3.138,0-3.737,1.484-3.737,3.672v4.648h7.474l-.977,7.292h-6.5V54.5H51.74a2.762,2.762,0,0,0,2.76-2.76V7.26A2.762,2.762,0,0,0,51.74,4.5Z" transform="translate(-4 -4)" fill="rgba(0,194,176,0.63)" stroke="#00c2b0" stroke-width="1"/>
</svg>
