<svg xmlns="http://www.w3.org/2000/svg" width="51" height="51" viewBox="0 0 51 51">
  <g id="Icon_ionic-logo-instagram" data-name="Icon ionic-logo-instagram" transform="translate(-4 -4)">
    <path id="Path_257" data-name="Path 257" d="M39.917,8.667A10.447,10.447,0,0,1,50.333,19.083V39.917A10.447,10.447,0,0,1,39.917,50.333H19.083A10.447,10.447,0,0,1,8.667,39.917V19.083A10.447,10.447,0,0,1,19.083,8.667H39.917m0-4.167H19.083A14.626,14.626,0,0,0,4.5,19.083V39.917A14.626,14.626,0,0,0,19.083,54.5H39.917A14.626,14.626,0,0,0,54.5,39.917V19.083A14.626,14.626,0,0,0,39.917,4.5Z" fill="rgba(0,194,176,0.63)" stroke="#00c2b0" stroke-width="1"/>
    <path id="Path_258" data-name="Path 258" d="M26.75,15.25a3.125,3.125,0,1,1,3.125-3.125A3.118,3.118,0,0,1,26.75,15.25Z" transform="translate(16.292 3.833)" fill="rgba(0,194,176,0.63)" stroke="#00c2b0" stroke-width="1"/>
    <path id="Path_259" data-name="Path 259" d="M23.75,15.417a8.333,8.333,0,1,1-8.333,8.333,8.341,8.341,0,0,1,8.333-8.333m0-4.167a12.5,12.5,0,1,0,12.5,12.5,12.5,12.5,0,0,0-12.5-12.5Z" transform="translate(5.75 5.75)" fill="rgba(0,194,176,0.63)" stroke="#00c2b0" stroke-width="1"/>
  </g>
</svg>
