<svg xmlns="http://www.w3.org/2000/svg" width="51" height="38.507" viewBox="0 0 51 38.507">
  <path id="Icon_ionic-logo-youtube" data-name="Icon ionic-logo-youtube" d="M49.675,12.782c0-4.4-3.233-7.931-7.228-7.931C37.037,4.6,31.518,4.5,25.883,4.5H24.125c-5.626,0-11.154.1-16.565.352C3.575,4.852.342,8.407.342,12.8.1,16.279-.01,19.756,0,23.233q-.015,5.216.332,10.441c0,4.4,3.233,7.96,7.218,7.96,5.684.264,11.515.381,17.444.371q8.907.029,17.444-.371c3.995,0,7.228-3.565,7.228-7.96.234-3.487.342-6.964.332-10.451Q50.027,18.008,49.675,12.782ZM20.218,32.814V13.622L34.38,23.214Z" transform="translate(0.5 -4)" fill="rgba(0,194,176,0.63)" stroke="#00c2b0" stroke-width="1"/>
</svg>
